<svg width="200" height="200" viewBox="0 0 200 200" xmlns="http://www.w3.org/2000/svg">
  <defs>
    <pattern id="neuronPattern" x="0" y="0" width="100" height="100" patternUnits="userSpaceOnUse">
      <circle cx="20" cy="20" r="10" stroke="#cccccc" stroke-width="1" fill="none"/>
      <circle cx="80" cy="20" r="10" stroke="#cccccc" stroke-width="1" fill="none"/>
      <circle cx="50" cy="50" r="10" stroke="#cccccc" stroke-width="1" fill="none"/>
      <circle cx="20" cy="80" r="10" stroke="#cccccc" stroke-width="1" fill="none"/>
      <circle cx="80" cy="80" r="10" stroke="#cccccc" stroke-width="1" fill="none"/>
      <path d="M20,20 L50,50 M50,50 L80,20 M50,50 L20,80 M50,50 L80,80" stroke="#cccccc" stroke-width="1" />
      <path d="M10,50 C20,40, 40,40, 50,50 S80,60, 90,50" stroke="#e0e0e0" stroke-width="1" fill="none"/>
      <path d="M10,90 C20,80, 40,80, 50,90 S80,100, 90,90" stroke="#e0e0e0" stroke-width="1" fill="none"/>
    </pattern>
  </defs>
  <rect width="100%" height="100%" fill="url(#neuronPattern)" />
</svg>
